<svg width="16" height="16" viewBox="0 0 16 16" fill="none" xmlns="http://www.w3.org/2000/svg">
<path d="M8.83333 11.16C8.83333 11.62 8.48 12 8 12C7.53333 12 7.16 11.6267 7.16 11.16C7.16 10.6867 7.53333 10.3267 8 10.3267C8.47333 10.3267 8.83333 10.6933 8.83333 11.16ZM7.99333 4C6.89062 4 6.11394 4.66953 5.7721 5.48628C5.73167 5.58286 5.7813 5.6914 5.87781 5.73201L6.60008 6.03589C6.70778 6.0812 6.83025 6.02439 6.87859 5.91802C7.05692 5.5256 7.39771 5.13333 8 5.13333C9.08 5.13333 9.29333 6.14667 8.91333 6.68667C8.55333 7.2 7.93333 7.54667 7.60667 8.12667C7.39459 8.50188 7.39098 8.9259 7.39686 9.24674C7.39888 9.35718 7.48954 9.44667 7.6 9.44667H8.41333C8.52379 9.44667 8.6129 9.3569 8.6153 9.24647C8.62512 8.79577 8.67183 8.67714 8.76 8.50667C9.02 8.02667 9.5 7.8 10.0067 7.06C10.46 6.39333 10.2867 5.48667 9.99333 5.00667C9.65333 4.44667 8.98 4 7.99333 4ZM12.6667 3.53333C12.6667 3.42288 12.5771 3.33333 12.4667 3.33333H3.53333C3.42288 3.33333 3.33333 3.42288 3.33333 3.53333V12.4667C3.33333 12.5771 3.42288 12.6667 3.53333 12.6667H12.4667C12.5771 12.6667 12.6667 12.5771 12.6667 12.4667V3.53333ZM13.8 2C13.9105 2 14 2.08936 14 2.19981C14 2.43553 14 2.85621 14 3.33333V13.8C14 13.9105 13.9105 14 13.8 14H2.20004C2.08958 14 2.00004 13.9105 2.00004 13.8L2 2.2C2 2.08955 2.08936 2 2.19981 2C2.43552 2 2.85621 2 3.33333 2H13.8Z" fill="#BABAB8"/>
</svg>
